<svg xmlns="http://www.w3.org/2000/svg" xmlns:xlink="http://www.w3.org/1999/xlink" width="2399" zoomAndPan="magnify" viewBox="0 0 1799.25 1799.999925" height="2400" preserveAspectRatio="xMidYMid meet" version="1.0"><defs><clipPath id="5f3c750ee7"><path d="M 321 0.375 L 1485 0.375 L 1485 1799.625 L 321 1799.625 Z M 321 0.375 " clip-rule="nonzero"/></clipPath></defs><g clip-path="url(#5f3c750ee7)"><path fill="#cbdd01" d="M 909.734375 0.375 C 538.039062 0.375 327.257812 208.625 321.257812 510.074219 L 321.257812 525.15625 L 649.394531 525.15625 L 649.394531 510.074219 C 656.589844 376.929688 748.699219 291.023438 887.917969 291.023438 C 1025.933594 291.023438 1117.949219 370.824219 1117.949219 483.425781 C 1117.949219 596.027344 1070.726562 654.164062 914.566406 747.425781 C 747.460938 845.484375 680.796875 954.46875 696.542969 1148.1875 L 698.445312 1199.875 L 1019.84375 1199.875 L 1019.84375 1150.675781 C 1019.84375 1034.476562 1064.683594 975.03125 1225.714844 881.84375 C 1396.417969 781.308594 1484.738281 654.238281 1484.738281 472.589844 C 1484.738281 192.882812 1256.015625 0.375 909.734375 0.375 Z M 866.101562 1424.78125 C 742.925781 1424.78125 666.085938 1496.289062 666.085938 1612.789062 C 666.085938 1728.242188 743 1799.625 866.101562 1799.625 C 989.199219 1799.625 1065.089844 1728.242188 1065.089844 1612.789062 C 1065.089844 1496.289062 989.273438 1424.78125 866.101562 1424.78125 Z M 866.101562 1424.78125 " fill-opacity="1" fill-rule="nonzero"/></g></svg>