<svg xmlns="http://www.w3.org/2000/svg" xmlns:xlink="http://www.w3.org/1999/xlink" width="2400" zoomAndPan="magnify" viewBox="0 0 1800 1799.999925" height="2400" preserveAspectRatio="xMidYMid meet" version="1.0"><path fill="#cbdd01" d="M 944.796875 0.226562 C 1042.019531 0.226562 1122.082031 78.386719 1122.082031 177.515625 C 1122.082031 276.640625 1043.925781 354.800781 944.796875 354.800781 C 845.671875 354.800781 767.511719 276.640625 767.511719 177.515625 C 767.511719 78.386719 847.578125 0.226562 944.796875 0.226562 Z M 1491.90625 795.152344 C 1491.90625 795.152344 1373.714844 753.214844 1308.898438 730.339844 C 1284.117188 720.808594 1263.148438 701.746094 1251.710938 676.964844 L 1228.835938 627.398438 C 1171.648438 501.585938 1059.175781 411.988281 923.828125 385.300781 C 805.636719 362.425781 681.730469 391.019531 584.507812 463.457031 L 512.070312 520.648438 C 464.410156 558.773438 432.003906 614.054688 424.378906 675.058594 L 397.691406 877.125 C 393.878906 913.34375 412.941406 951.46875 449.160156 962.90625 C 496.820312 978.15625 544.476562 945.75 550.195312 900 L 574.976562 703.652344 C 578.789062 676.964844 592.132812 652.179688 615.007812 635.023438 C 647.414062 610.242188 693.167969 575.929688 693.167969 575.929688 L 672.199219 932.40625 C 670.292969 953.375 664.574219 974.34375 653.132812 991.503906 L 555.914062 1147.820312 C 546.382812 1163.070312 534.945312 1174.507812 521.601562 1185.945312 L 313.8125 1336.542969 C 266.15625 1367.042969 249 1429.949219 277.59375 1477.609375 C 308.09375 1527.171875 372.910156 1542.421875 420.566406 1510.015625 L 645.507812 1367.042969 C 668.386719 1351.792969 689.355469 1334.636719 706.511719 1311.757812 L 839.953125 1145.910156 C 839.953125 1145.910156 920.015625 1260.289062 965.765625 1325.105469 C 984.828125 1351.792969 992.457031 1384.199219 988.644531 1416.605469 L 960.046875 1673.957031 C 954.328125 1729.238281 990.550781 1784.519531 1047.738281 1792.144531 C 1104.925781 1799.769531 1156.398438 1759.738281 1164.023438 1702.550781 L 1202.148438 1370.855469 C 1207.867188 1325.105469 1198.335938 1277.445312 1177.367188 1235.507812 C 1156.398438 1193.570312 1097.300781 1103.972656 1062.988281 1050.597656 C 1045.832031 1023.910156 1038.207031 991.503906 1043.925781 959.09375 L 1091.582031 686.496094 L 1118.269531 745.589844 C 1144.957031 802.777344 1192.617188 848.53125 1253.617188 869.5 L 1448.058594 938.125 C 1491.90625 953.375 1541.46875 926.6875 1549.09375 877.125 C 1551 842.8125 1528.125 806.589844 1491.90625 795.152344 Z M 1491.90625 795.152344 " fill-opacity="1" fill-rule="nonzero"/></svg>