<svg xmlns="http://www.w3.org/2000/svg" xmlns:xlink="http://www.w3.org/1999/xlink" width="2400" zoomAndPan="magnify" viewBox="0 0 1800 1799.999925" height="2400" preserveAspectRatio="xMidYMid meet" version="1.0"><defs><clipPath id="d64f53019c"><path d="M 163.125 0 L 1636.875 0 L 1636.875 1800 L 163.125 1800 Z M 163.125 0 " clip-rule="nonzero"/></clipPath></defs><g clip-path="url(#d64f53019c)"><path fill="#cbdd01" d="M 327.273438 0 C 236.863281 0 163.636719 73.226562 163.636719 163.636719 L 163.636719 1636.363281 C 163.636719 1726.773438 236.863281 1800 327.273438 1800 L 490.910156 1800 C 581.316406 1800 654.546875 1726.773438 654.546875 1636.363281 L 654.546875 163.636719 C 654.546875 73.226562 581.316406 0 490.910156 0 Z M 1309.089844 0 C 1218.683594 0 1145.453125 73.226562 1145.453125 163.636719 L 1145.453125 1636.363281 C 1145.453125 1726.773438 1218.683594 1800 1309.089844 1800 L 1472.726562 1800 C 1563.136719 1800 1636.363281 1726.773438 1636.363281 1636.363281 L 1636.363281 163.636719 C 1636.363281 73.226562 1563.136719 0 1472.726562 0 Z M 1309.089844 0 " fill-opacity="1" fill-rule="nonzero"/></g></svg>