<svg xmlns="http://www.w3.org/2000/svg" xmlns:xlink="http://www.w3.org/1999/xlink" width="2400" zoomAndPan="magnify" viewBox="0 0 1800 1799.999925" height="2400" preserveAspectRatio="xMidYMid meet" version="1.0"><defs><clipPath id="272df77a90"><path d="M 687 894 L 912 894 L 912 1135 L 687 1135 Z M 687 894 " clip-rule="nonzero"/></clipPath><clipPath id="9467b7e853"><path d="M -140.421875 668.429688 L 1469.328125 -165.097656 L 2100.769531 1054.367188 L 491.019531 1887.894531 Z M -140.421875 668.429688 " clip-rule="nonzero"/></clipPath><clipPath id="6463d70f7e"><path d="M -140.421875 668.429688 L 1469.328125 -165.097656 L 2100.769531 1054.367188 L 491.019531 1887.894531 Z M -140.421875 668.429688 " clip-rule="nonzero"/></clipPath><clipPath id="5e5f707b19"><path d="M 543 1279 L 959 1279 L 959 1796 L 543 1796 Z M 543 1279 " clip-rule="nonzero"/></clipPath><clipPath id="b163c51a82"><path d="M -140.421875 668.429688 L 1469.328125 -165.097656 L 2100.769531 1054.367188 L 491.019531 1887.894531 Z M -140.421875 668.429688 " clip-rule="nonzero"/></clipPath><clipPath id="5616347271"><path d="M -140.421875 668.429688 L 1469.328125 -165.097656 L 2100.769531 1054.367188 L 491.019531 1887.894531 Z M -140.421875 668.429688 " clip-rule="nonzero"/></clipPath><clipPath id="1d3dbd4592"><path d="M 1168 0 L 1541 0 L 1541 371 L 1168 371 Z M 1168 0 " clip-rule="nonzero"/></clipPath><clipPath id="cf3ba15987"><path d="M -140.421875 668.429688 L 1469.328125 -165.097656 L 2100.769531 1054.367188 L 491.019531 1887.894531 Z M -140.421875 668.429688 " clip-rule="nonzero"/></clipPath><clipPath id="05a9d00d6b"><path d="M -140.421875 668.429688 L 1469.328125 -165.097656 L 2100.769531 1054.367188 L 491.019531 1887.894531 Z M -140.421875 668.429688 " clip-rule="nonzero"/></clipPath><clipPath id="aa48ff829b"><path d="M 632 249 L 1743 249 L 1743 1390 L 632 1390 Z M 632 249 " clip-rule="nonzero"/></clipPath><clipPath id="8d01b398c3"><path d="M -140.421875 668.429688 L 1469.328125 -165.097656 L 2100.769531 1054.367188 L 491.019531 1887.894531 Z M -140.421875 668.429688 " clip-rule="nonzero"/></clipPath><clipPath id="54552b21c8"><path d="M -140.421875 668.429688 L 1469.328125 -165.097656 L 2100.769531 1054.367188 L 491.019531 1887.894531 Z M -140.421875 668.429688 " clip-rule="nonzero"/></clipPath><clipPath id="1786740b27"><path d="M 353 284 L 1088 284 L 1088 618 L 353 618 Z M 353 284 " clip-rule="nonzero"/></clipPath><clipPath id="8d90bd6e59"><path d="M -140.421875 668.429688 L 1469.328125 -165.097656 L 2100.769531 1054.367188 L 491.019531 1887.894531 Z M -140.421875 668.429688 " clip-rule="nonzero"/></clipPath><clipPath id="db11ccd708"><path d="M -140.421875 668.429688 L 1469.328125 -165.097656 L 2100.769531 1054.367188 L 491.019531 1887.894531 Z M -140.421875 668.429688 " clip-rule="nonzero"/></clipPath><clipPath id="a83b6ff9cb"><path d="M 261 663 L 573 663 L 573 836 L 261 836 Z M 261 663 " clip-rule="nonzero"/></clipPath><clipPath id="3d506d4c37"><path d="M -140.421875 668.429688 L 1469.328125 -165.097656 L 2100.769531 1054.367188 L 491.019531 1887.894531 Z M -140.421875 668.429688 " clip-rule="nonzero"/></clipPath><clipPath id="281703723b"><path d="M -140.421875 668.429688 L 1469.328125 -165.097656 L 2100.769531 1054.367188 L 491.019531 1887.894531 Z M -140.421875 668.429688 " clip-rule="nonzero"/></clipPath><clipPath id="9cda1d1c7d"><path d="M 245 786 L 556 786 L 556 959 L 245 959 Z M 245 786 " clip-rule="nonzero"/></clipPath><clipPath id="68136153cd"><path d="M -140.421875 668.429688 L 1469.328125 -165.097656 L 2100.769531 1054.367188 L 491.019531 1887.894531 Z M -140.421875 668.429688 " clip-rule="nonzero"/></clipPath><clipPath id="ee7cad2c76"><path d="M -140.421875 668.429688 L 1469.328125 -165.097656 L 2100.769531 1054.367188 L 491.019531 1887.894531 Z M -140.421875 668.429688 " clip-rule="nonzero"/></clipPath><clipPath id="6f12d46d02"><path d="M 33 770 L 476 770 L 476 1011 L 33 1011 Z M 33 770 " clip-rule="nonzero"/></clipPath><clipPath id="f28abb4cc4"><path d="M -140.421875 668.429688 L 1469.328125 -165.097656 L 2100.769531 1054.367188 L 491.019531 1887.894531 Z M -140.421875 668.429688 " clip-rule="nonzero"/></clipPath><clipPath id="dac7b2973e"><path d="M -140.421875 668.429688 L 1469.328125 -165.097656 L 2100.769531 1054.367188 L 491.019531 1887.894531 Z M -140.421875 668.429688 " clip-rule="nonzero"/></clipPath><clipPath id="992b143321"><path d="M 1331 1015 L 1642 1015 L 1642 1188 L 1331 1188 Z M 1331 1015 " clip-rule="nonzero"/></clipPath><clipPath id="4933863933"><path d="M -140.421875 668.429688 L 1469.328125 -165.097656 L 2100.769531 1054.367188 L 491.019531 1887.894531 Z M -140.421875 668.429688 " clip-rule="nonzero"/></clipPath><clipPath id="a861562e1c"><path d="M -140.421875 668.429688 L 1469.328125 -165.097656 L 2100.769531 1054.367188 L 491.019531 1887.894531 Z M -140.421875 668.429688 " clip-rule="nonzero"/></clipPath><clipPath id="25d26b1bd5"><path d="M 1315 1138 L 1626 1138 L 1626 1311 L 1315 1311 Z M 1315 1138 " clip-rule="nonzero"/></clipPath><clipPath id="c9b57dbfb9"><path d="M -140.421875 668.429688 L 1469.328125 -165.097656 L 2100.769531 1054.367188 L 491.019531 1887.894531 Z M -140.421875 668.429688 " clip-rule="nonzero"/></clipPath><clipPath id="33f7cc1cf1"><path d="M -140.421875 668.429688 L 1469.328125 -165.097656 L 2100.769531 1054.367188 L 491.019531 1887.894531 Z M -140.421875 668.429688 " clip-rule="nonzero"/></clipPath><clipPath id="6ba5197c6a"><path d="M 1103 1122 L 1546 1122 L 1546 1363 L 1103 1363 Z M 1103 1122 " clip-rule="nonzero"/></clipPath><clipPath id="704864f43e"><path d="M -140.421875 668.429688 L 1469.328125 -165.097656 L 2100.769531 1054.367188 L 491.019531 1887.894531 Z M -140.421875 668.429688 " clip-rule="nonzero"/></clipPath><clipPath id="7fb542f4ff"><path d="M -140.421875 668.429688 L 1469.328125 -165.097656 L 2100.769531 1054.367188 L 491.019531 1887.894531 Z M -140.421875 668.429688 " clip-rule="nonzero"/></clipPath></defs><g clip-path="url(#272df77a90)"><g clip-path="url(#9467b7e853)"><g clip-path="url(#6463d70f7e)"><path fill="#cbdd01" d="M 740.816406 929.066406 C 736.847656 927.070312 732.894531 924.769531 728.433594 921.820312 C 715.019531 914.222656 700.898438 905.304688 687.472656 894.5625 L 738.902344 1134.949219 L 911.328125 1014.722656 Z M 740.816406 929.066406 " fill-opacity="1" fill-rule="nonzero"/></g></g></g><g clip-path="url(#5e5f707b19)"><g clip-path="url(#b163c51a82)"><g clip-path="url(#5616347271)"><path fill="#cbdd01" d="M 791.222656 1394.933594 C 754.761719 1413.8125 712.421875 1412.367188 677.976562 1394.15625 L 553.484375 1650.054688 C 529.066406 1700.253906 549.964844 1760.75 600.164062 1785.175781 C 630.03125 1799.703125 663.546875 1798.191406 690.9375 1784.011719 C 709.578125 1774.359375 725.390625 1758.828125 735.285156 1738.496094 L 955.84375 1285.132812 C 956.6875 1283.394531 957.417969 1281.605469 958.15625 1279.820312 L 805.03125 1386.59375 C 800.628906 1389.664062 795.976562 1392.46875 791.222656 1394.933594 Z M 791.222656 1394.933594 " fill-opacity="1" fill-rule="nonzero"/></g></g></g><g clip-path="url(#1d3dbd4592)"><g clip-path="url(#cf3ba15987)"><g clip-path="url(#05a9d00d6b)"><path fill="#cbdd01" d="M 1441.84375 21.492188 C 1444.527344 22.921875 1447.167969 24.417969 1449.777344 25.976562 C 1452.382812 27.539062 1454.949219 29.160156 1457.476562 30.847656 C 1460.003906 32.535156 1462.488281 34.28125 1464.929688 36.089844 C 1467.371094 37.898438 1469.769531 39.765625 1472.117188 41.691406 C 1474.46875 43.621094 1476.769531 45.601562 1479.023438 47.640625 C 1481.273438 49.679688 1483.476562 51.773438 1485.625 53.921875 C 1487.773438 56.070312 1489.871094 58.265625 1491.914062 60.515625 C 1493.953125 62.765625 1495.9375 65.066406 1497.867188 67.414062 C 1499.796875 69.761719 1501.667969 72.15625 1503.480469 74.59375 C 1505.289062 77.035156 1507.039062 79.515625 1508.730469 82.042969 C 1510.417969 84.566406 1512.046875 87.132812 1513.609375 89.738281 C 1515.171875 92.34375 1516.671875 94.984375 1518.105469 97.664062 C 1519.539062 100.34375 1520.90625 103.054688 1522.207031 105.800781 C 1523.507812 108.546875 1524.742188 111.324219 1525.90625 114.128906 C 1527.070312 116.9375 1528.164062 119.769531 1529.191406 122.628906 C 1530.214844 125.488281 1531.167969 128.375 1532.054688 131.28125 C 1532.9375 134.1875 1533.75 137.113281 1534.488281 140.0625 C 1535.230469 143.007812 1535.894531 145.972656 1536.492188 148.953125 C 1537.085938 151.929688 1537.605469 154.921875 1538.054688 157.929688 C 1538.5 160.933594 1538.875 163.949219 1539.175781 166.972656 C 1539.472656 169.996094 1539.699219 173.023438 1539.851562 176.058594 C 1540 179.09375 1540.078125 182.128906 1540.078125 185.167969 C 1540.082031 188.207031 1540.007812 191.246094 1539.859375 194.277344 C 1539.714844 197.3125 1539.492188 200.34375 1539.195312 203.367188 C 1538.898438 206.390625 1538.527344 209.40625 1538.085938 212.410156 C 1537.640625 215.417969 1537.125 218.410156 1536.53125 221.390625 C 1535.941406 224.371094 1535.277344 227.335938 1534.539062 230.285156 C 1533.804688 233.230469 1532.996094 236.160156 1532.117188 239.066406 C 1531.234375 241.976562 1530.285156 244.859375 1529.261719 247.722656 C 1528.238281 250.582031 1527.148438 253.417969 1525.988281 256.226562 C 1524.828125 259.03125 1523.597656 261.8125 1522.300781 264.558594 C 1521.003906 267.304688 1519.636719 270.019531 1518.207031 272.699219 C 1516.777344 275.378906 1515.28125 278.023438 1513.71875 280.632812 C 1512.160156 283.238281 1510.535156 285.804688 1508.847656 288.332031 C 1507.164062 290.859375 1505.414062 293.34375 1503.605469 295.785156 C 1501.796875 298.226562 1499.929688 300.625 1498.003906 302.972656 C 1496.078125 305.324219 1494.09375 307.625 1492.054688 309.875 C 1490.015625 312.128906 1487.925781 314.332031 1485.777344 316.480469 C 1483.628906 318.628906 1481.429688 320.726562 1479.179688 322.765625 C 1476.929688 324.808594 1474.632812 326.792969 1472.285156 328.722656 C 1469.9375 330.652344 1467.542969 332.523438 1465.101562 334.332031 C 1462.664062 336.144531 1460.179688 337.894531 1457.65625 339.585938 C 1455.128906 341.273438 1452.566406 342.902344 1449.960938 344.464844 C 1447.355469 346.027344 1444.714844 347.527344 1442.035156 348.960938 C 1439.355469 350.394531 1436.644531 351.761719 1433.898438 353.0625 C 1431.152344 354.363281 1428.375 355.597656 1425.570312 356.761719 C 1422.761719 357.925781 1419.929688 359.019531 1417.070312 360.042969 C 1414.207031 361.070312 1411.324219 362.023438 1408.417969 362.90625 C 1405.511719 363.792969 1402.582031 364.605469 1399.636719 365.34375 C 1396.6875 366.082031 1393.726562 366.75 1390.746094 367.34375 C 1387.765625 367.941406 1384.773438 368.460938 1381.769531 368.910156 C 1378.765625 369.355469 1375.75 369.730469 1372.726562 370.027344 C 1369.703125 370.328125 1366.671875 370.554688 1363.636719 370.703125 C 1360.605469 370.855469 1357.566406 370.933594 1354.527344 370.933594 C 1351.488281 370.933594 1348.453125 370.863281 1345.417969 370.714844 C 1342.382812 370.566406 1339.355469 370.347656 1336.332031 370.050781 C 1333.304688 369.753906 1330.292969 369.382812 1327.285156 368.941406 C 1324.28125 368.496094 1321.285156 367.976562 1318.304688 367.386719 C 1315.328125 366.796875 1312.363281 366.132812 1309.414062 365.394531 C 1306.464844 364.660156 1303.539062 363.851562 1300.628906 362.96875 C 1297.722656 362.089844 1294.835938 361.140625 1291.976562 360.117188 C 1289.113281 359.09375 1286.28125 358.003906 1283.472656 356.84375 C 1280.664062 355.679688 1277.886719 354.453125 1275.140625 353.152344 C 1272.390625 351.855469 1269.679688 350.492188 1266.996094 349.0625 C 1264.316406 347.632812 1261.671875 346.136719 1259.066406 344.574219 C 1256.460938 343.015625 1253.890625 341.390625 1251.363281 339.703125 C 1248.835938 338.015625 1246.351562 336.269531 1243.910156 334.460938 C 1241.46875 332.652344 1239.074219 330.785156 1236.722656 328.859375 C 1234.375 326.933594 1232.074219 324.949219 1229.820312 322.910156 C 1227.570312 320.871094 1225.367188 318.777344 1223.21875 316.632812 C 1221.066406 314.484375 1218.972656 312.285156 1216.929688 310.035156 C 1214.886719 307.785156 1212.902344 305.488281 1210.972656 303.140625 C 1209.046875 300.792969 1207.175781 298.398438 1205.363281 295.957031 C 1203.550781 293.519531 1201.800781 291.035156 1200.113281 288.511719 C 1198.421875 285.984375 1196.796875 283.421875 1195.234375 280.816406 C 1193.667969 278.210938 1192.171875 275.566406 1190.738281 272.890625 C 1189.304688 270.210938 1187.9375 267.496094 1186.636719 264.75 C 1185.335938 262.003906 1184.101562 259.230469 1182.9375 256.421875 C 1181.773438 253.617188 1180.679688 250.785156 1179.652344 247.921875 C 1178.628906 245.0625 1177.671875 242.179688 1176.789062 239.273438 C 1175.90625 236.363281 1175.09375 233.4375 1174.355469 230.492188 C 1173.613281 227.542969 1172.945312 224.582031 1172.351562 221.601562 C 1171.757812 218.621094 1171.238281 215.628906 1170.789062 212.625 C 1170.339844 209.617188 1169.96875 206.605469 1169.667969 203.582031 C 1169.367188 200.558594 1169.144531 197.527344 1168.992188 194.492188 C 1168.84375 191.457031 1168.765625 188.421875 1168.765625 185.382812 C 1168.761719 182.34375 1168.835938 179.308594 1168.984375 176.273438 C 1169.128906 173.238281 1169.351562 170.210938 1169.648438 167.183594 C 1169.945312 164.160156 1170.3125 161.148438 1170.757812 158.140625 C 1171.203125 155.136719 1171.71875 152.140625 1172.3125 149.160156 C 1172.902344 146.179688 1173.566406 143.21875 1174.300781 140.269531 C 1175.039062 137.320312 1175.847656 134.394531 1176.726562 131.484375 C 1177.609375 128.578125 1178.558594 125.691406 1179.582031 122.832031 C 1180.601562 119.96875 1181.695312 117.136719 1182.855469 114.328125 C 1184.015625 111.519531 1185.246094 108.742188 1186.542969 105.996094 C 1187.839844 103.246094 1189.203125 100.53125 1190.636719 97.851562 C 1192.066406 95.171875 1193.5625 92.527344 1195.121094 89.921875 C 1196.683594 87.3125 1198.308594 84.746094 1199.992188 82.21875 C 1201.679688 79.691406 1203.425781 77.207031 1205.234375 74.765625 C 1207.042969 72.324219 1208.914062 69.929688 1210.839844 67.578125 C 1212.765625 65.230469 1214.746094 62.929688 1216.785156 60.675781 C 1218.824219 58.421875 1220.917969 56.222656 1223.066406 54.074219 C 1225.214844 51.921875 1227.410156 49.828125 1229.664062 47.785156 C 1231.914062 45.742188 1234.210938 43.757812 1236.558594 41.828125 C 1238.90625 39.902344 1241.300781 38.03125 1243.738281 36.21875 C 1246.179688 34.40625 1248.660156 32.65625 1251.1875 30.96875 C 1253.710938 29.277344 1256.277344 27.652344 1258.882812 26.089844 C 1261.488281 24.523438 1264.128906 23.027344 1266.808594 21.59375 C 1269.488281 20.15625 1272.199219 18.789062 1274.945312 17.488281 C 1277.691406 16.1875 1280.46875 14.957031 1283.273438 13.792969 C 1286.082031 12.628906 1288.914062 11.535156 1291.773438 10.507812 C 1294.632812 9.484375 1297.519531 8.527344 1300.425781 7.644531 C 1303.332031 6.761719 1306.257812 5.949219 1309.207031 5.207031 C 1312.152344 4.46875 1315.117188 3.800781 1318.097656 3.207031 C 1321.074219 2.613281 1324.070312 2.089844 1327.074219 1.644531 C 1330.078125 1.195312 1333.09375 0.824219 1336.117188 0.523438 C 1339.140625 0.222656 1342.171875 0 1345.203125 -0.152344 C 1348.238281 -0.304688 1351.277344 -0.378906 1354.3125 -0.382812 C 1357.351562 -0.382812 1360.390625 -0.308594 1363.425781 -0.164062 C 1366.457031 -0.015625 1369.488281 0.207031 1372.511719 0.503906 C 1375.535156 0.796875 1378.550781 1.167969 1381.558594 1.613281 C 1384.5625 2.058594 1387.554688 2.574219 1390.535156 3.164062 C 1393.515625 3.757812 1396.480469 4.421875 1399.429688 5.15625 C 1402.375 5.894531 1405.304688 6.703125 1408.210938 7.582031 C 1411.121094 8.460938 1414.003906 9.414062 1416.867188 10.4375 C 1419.726562 11.457031 1422.5625 12.550781 1425.371094 13.710938 C 1428.179688 14.871094 1430.957031 16.101562 1433.703125 17.398438 C 1436.449219 18.695312 1439.164062 20.058594 1441.84375 21.492188 Z M 1441.84375 21.492188 " fill-opacity="1" fill-rule="nonzero"/></g></g></g><g clip-path="url(#aa48ff829b)"><g clip-path="url(#8d01b398c3)"><g clip-path="url(#54552b21c8)"><path fill="#cbdd01" d="M 1675.359375 564.183594 L 1324.996094 570.382812 L 1215.5 371.28125 L 1186.621094 318.773438 C 1181.472656 307.464844 1174.300781 297.257812 1164.824219 288.699219 C 1115.960938 244.5625 1022.5 228.675781 935.738281 291.03125 L 1030.328125 301.058594 C 1076.933594 306 1110.824219 347.929688 1105.890625 394.535156 C 1102.867188 423.023438 1085.867188 447.902344 1060.402344 461.085938 C 1045.625 468.738281 1029.035156 471.855469 1012.421875 470.097656 L 785.929688 446.089844 C 732.613281 515.539062 693.484375 589.886719 652.25 694.820312 C 615.460938 814.472656 675.925781 870.410156 738.355469 905.632812 C 741.859375 907.964844 745.472656 910.171875 749.332031 912.113281 L 948.316406 1012.0625 L 676.1875 1201.808594 C 629.453125 1234.390625 617.996094 1298.6875 650.574219 1345.414062 C 680.511719 1388.355469 737.234375 1401.515625 782.496094 1378.078125 C 786.480469 1376.015625 790.390625 1373.65625 794.164062 1371.023438 L 1208.34375 1082.226562 C 1238.164062 1061.433594 1254.832031 1026.488281 1252.234375 990.230469 C 1249.636719 953.96875 1228.136719 921.765625 1195.652344 905.449219 L 937.792969 775.929688 C 993.964844 672.265625 1077.613281 576.527344 1137.4375 503.300781 L 1147.289062 521.214844 L 1228.5 668.898438 C 1240.296875 690.359375 1263.011719 703.519531 1287.5 703.09375 L 1677.675781 696.195312 C 1688.195312 695.996094 1698.085938 693.375 1706.828125 688.847656 C 1728.402344 677.679688 1742.964844 654.964844 1742.515625 629.03125 C 1741.878906 592.570312 1711.804688 563.542969 1675.359375 564.183594 Z M 1675.359375 564.183594 " fill-opacity="1" fill-rule="nonzero"/></g></g></g><g clip-path="url(#1786740b27)"><g clip-path="url(#8d90bd6e59)"><g clip-path="url(#db11ccd708)"><path fill="#cbdd01" d="M 1014.417969 451.222656 C 1027.761719 452.636719 1040.597656 449.96875 1051.675781 444.230469 C 1070.71875 434.371094 1084.585938 415.445312 1087.023438 392.535156 C 1090.867188 356.277344 1064.59375 323.773438 1028.335938 319.929688 L 700.621094 285.195312 C 684.28125 283.464844 667.898438 287.859375 654.644531 297.59375 L 380.699219 498.296875 C 351.292969 519.839844 344.910156 561.148438 366.464844 590.558594 C 388.011719 619.960938 429.339844 626.363281 458.726562 604.789062 L 712.09375 419.183594 Z M 1014.417969 451.222656 " fill-opacity="1" fill-rule="nonzero"/></g></g></g><g clip-path="url(#a83b6ff9cb)"><g clip-path="url(#3d506d4c37)"><g clip-path="url(#281703723b)"><path fill="#cbdd01" d="M 261.933594 820.40625 L 564.453125 663.761719 L 572.222656 678.769531 L 269.703125 835.410156 Z M 261.933594 820.40625 " fill-opacity="1" fill-rule="nonzero"/></g></g></g><g clip-path="url(#9cda1d1c7d)"><g clip-path="url(#68136153cd)"><g clip-path="url(#ee7cad2c76)"><path fill="#cbdd01" d="M 245.527344 943.0625 L 548.046875 786.417969 L 555.816406 801.425781 L 253.296875 958.070312 Z M 245.527344 943.0625 " fill-opacity="1" fill-rule="nonzero"/></g></g></g><g clip-path="url(#6f12d46d02)"><g clip-path="url(#f28abb4cc4)"><g clip-path="url(#dac7b2973e)"><path fill="#cbdd01" d="M 33.933594 995.542969 L 468.015625 770.777344 L 475.785156 785.785156 L 41.703125 1010.550781 Z M 33.933594 995.542969 " fill-opacity="1" fill-rule="nonzero"/></g></g></g><g clip-path="url(#992b143321)"><g clip-path="url(#4933863933)"><g clip-path="url(#a861562e1c)"><path fill="#cbdd01" d="M 1331.628906 1172.488281 L 1634.148438 1015.84375 L 1641.917969 1030.851562 L 1339.398438 1187.496094 Z M 1331.628906 1172.488281 " fill-opacity="1" fill-rule="nonzero"/></g></g></g><g clip-path="url(#25d26b1bd5)"><g clip-path="url(#c9b57dbfb9)"><g clip-path="url(#33f7cc1cf1)"><path fill="#cbdd01" d="M 1315.21875 1295.148438 L 1617.738281 1138.503906 L 1625.507812 1153.507812 L 1322.988281 1310.152344 Z M 1315.21875 1295.148438 " fill-opacity="1" fill-rule="nonzero"/></g></g></g><g clip-path="url(#6ba5197c6a)"><g clip-path="url(#704864f43e)"><g clip-path="url(#7fb542f4ff)"><path fill="#cbdd01" d="M 1103.628906 1347.628906 L 1537.710938 1122.859375 L 1545.480469 1137.867188 L 1111.398438 1362.632812 Z M 1103.628906 1347.628906 " fill-opacity="1" fill-rule="nonzero"/></g></g></g></svg>